<svg width="96" height="19" viewBox="0 0 96 19" fill="none" xmlns="http://www.w3.org/2000/svg">
<path fill-rule="evenodd" clip-rule="evenodd" d="M16.407 17.9997H0.593023C0.265506 17.9997 0 17.7335 0 17.4051C0 17.0767 0.265506 16.8105 0.593023 16.8105H16.407C16.7345 16.8105 17 17.0767 17 17.4051C17 17.7335 16.7345 17.9997 16.407 17.9997Z" fill="#D3D3D3"/>
<path fill-rule="evenodd" clip-rule="evenodd" d="M4.54648 8.53083V12.8909H2.96509V8.53083H4.54648ZM4.54649 7.3418H2.9651C2.31006 7.3418 1.77905 7.87418 1.77905 8.53092V12.891C1.77905 13.5478 2.31006 14.0801 2.9651 14.0801H4.54649C5.20153 14.0801 5.73254 13.5478 5.73254 12.891V8.53092C5.73254 7.87418 5.20153 7.3418 4.54649 7.3418Z" fill="#B7BDCD"/>
<path fill-rule="evenodd" clip-rule="evenodd" d="M9.29062 5.75656V12.8913H7.70923V5.75656H9.29062ZM9.29064 4.56738H7.70924C7.0542 4.56738 6.52319 5.09977 6.52319 5.7565V12.8912C6.52319 13.548 7.0542 14.0803 7.70924 14.0803H9.29064C9.94567 14.0803 10.4767 13.548 10.4767 12.8912V5.7565C10.4767 5.09977 9.94567 4.56738 9.29064 4.56738Z" fill="#B7BDCD"/>
<path fill-rule="evenodd" clip-rule="evenodd" d="M14.0349 2.18914V12.8912H12.4535V2.18914H14.0349ZM14.0349 1H12.4535C11.7985 1 11.2675 1.53239 11.2675 2.18912V12.8912C11.2675 13.5479 11.7985 14.0803 12.4535 14.0803H14.0349C14.6899 14.0803 15.2209 13.5479 15.2209 12.8912V2.18912C15.2209 1.53239 14.6899 1 14.0349 1Z" fill="#B7BDCD"/>
<path d="M28.218 4.13H31.536C33.1133 4.13 34.3313 4.55933 35.19 5.418C36.058 6.26733 36.492 7.48067 36.492 9.058C36.492 10.6353 36.058 11.8533 35.19 12.712C34.3313 13.5707 33.1133 14 31.536 14H28.218V4.13ZM31.466 13.02C34.0233 13.02 35.302 11.6993 35.302 9.058C35.302 6.426 34.0233 5.11 31.466 5.11H29.366V13.02H31.466ZM41.1716 7.014C42.0396 7.014 42.6836 7.238 43.1036 7.686C43.5329 8.12467 43.7476 8.79667 43.7476 9.702V14H42.6416V12.838C42.4643 13.2393 42.1936 13.552 41.8296 13.776C41.4656 13.9907 41.0456 14.098 40.5696 14.098C40.1309 14.098 39.7249 14.0093 39.3516 13.832C38.9876 13.6547 38.6983 13.4073 38.4836 13.09C38.2689 12.7727 38.1616 12.4227 38.1616 12.04C38.1616 11.5267 38.2923 11.13 38.5536 10.85C38.8149 10.5607 39.2443 10.3553 39.8416 10.234C40.4389 10.1033 41.2696 10.038 42.3336 10.038H42.6416V9.576C42.6416 9.00667 42.5249 8.596 42.2916 8.344C42.0583 8.08267 41.6803 7.952 41.1576 7.952C40.3736 7.952 39.5943 8.19467 38.8196 8.68L38.4416 7.854C38.7963 7.602 39.2209 7.40133 39.7156 7.252C40.2196 7.09333 40.7049 7.014 41.1716 7.014ZM40.7236 13.202C41.2836 13.202 41.7409 13.0153 42.0956 12.642C42.4596 12.2593 42.6416 11.7693 42.6416 11.172V10.766H42.3896C41.5683 10.766 40.9429 10.8033 40.5136 10.878C40.0843 10.9433 39.7763 11.06 39.5896 11.228C39.4123 11.3867 39.3236 11.6247 39.3236 11.942C39.3236 12.306 39.4543 12.6093 39.7156 12.852C39.9863 13.0853 40.3223 13.202 40.7236 13.202ZM48.1334 14.098C46.9854 14.098 46.0754 13.804 45.4034 13.216L45.7814 12.376C46.1454 12.6653 46.5141 12.8753 46.8874 13.006C47.2701 13.1273 47.6994 13.188 48.1754 13.188C48.6794 13.188 49.0621 13.104 49.3234 12.936C49.5941 12.7587 49.7294 12.5067 49.7294 12.18C49.7294 11.9093 49.6408 11.6947 49.4634 11.536C49.2861 11.3773 48.9921 11.2513 48.5814 11.158L47.4334 10.892C46.8548 10.7613 46.4114 10.5373 46.1034 10.22C45.7954 9.90267 45.6414 9.51067 45.6414 9.044C45.6414 8.43733 45.8794 7.94733 46.3554 7.574C46.8314 7.20067 47.4661 7.014 48.2594 7.014C48.7354 7.014 49.1881 7.09333 49.6174 7.252C50.0468 7.40133 50.4061 7.62067 50.6954 7.91L50.3174 8.736C49.6921 8.204 49.0061 7.938 48.2594 7.938C47.7834 7.938 47.4101 8.03133 47.1394 8.218C46.8781 8.39533 46.7474 8.64733 46.7474 8.974C46.7474 9.24467 46.8268 9.464 46.9854 9.632C47.1534 9.79067 47.4194 9.912 47.7834 9.996L48.9454 10.276C49.5801 10.4253 50.0514 10.654 50.3594 10.962C50.6674 11.2607 50.8214 11.6527 50.8214 12.138C50.8214 12.7353 50.5788 13.2113 50.0934 13.566C49.6174 13.9207 48.9641 14.098 48.1334 14.098ZM55.98 7.014C57.6133 7.014 58.43 7.91467 58.43 9.716V14H57.296V9.786C57.296 9.15133 57.17 8.68933 56.918 8.4C56.6753 8.11067 56.2833 7.966 55.742 7.966C55.1167 7.966 54.6173 8.15733 54.244 8.54C53.8707 8.92267 53.684 9.44067 53.684 10.094V14H52.55V4.13H53.684V8.274C53.908 7.86333 54.216 7.55067 54.608 7.336C55.0093 7.12133 55.4667 7.014 55.98 7.014ZM63.937 7.014C64.5344 7.014 65.0617 7.15867 65.519 7.448C65.9764 7.73733 66.331 8.148 66.583 8.68C66.835 9.212 66.961 9.828 66.961 10.528C66.961 11.2373 66.835 11.8627 66.583 12.404C66.331 12.936 65.9764 13.3513 65.519 13.65C65.0617 13.9487 64.5344 14.098 63.937 14.098C63.405 14.098 62.9384 13.9813 62.537 13.748C62.145 13.5147 61.8464 13.1833 61.641 12.754V14H60.507V4.13H61.641V8.358C61.8464 7.92867 62.145 7.59733 62.537 7.364C62.9384 7.13067 63.405 7.014 63.937 7.014ZM63.713 13.16C64.3757 13.16 64.889 12.9313 65.253 12.474C65.617 12.0073 65.799 11.3587 65.799 10.528C65.799 9.716 65.617 9.086 65.253 8.638C64.889 8.19 64.3757 7.966 63.713 7.966C63.0504 7.966 62.537 8.19 62.173 8.638C61.8184 9.086 61.641 9.72533 61.641 10.556C61.641 11.3867 61.8184 12.0307 62.173 12.488C62.537 12.936 63.0504 13.16 63.713 13.16ZM71.4835 14.098C70.8395 14.098 70.2701 13.9533 69.7755 13.664C69.2901 13.3747 68.9121 12.964 68.6415 12.432C68.3801 11.8907 68.2495 11.2653 68.2495 10.556C68.2495 9.84667 68.3801 9.226 68.6415 8.694C68.9121 8.15267 69.2901 7.73733 69.7755 7.448C70.2701 7.15867 70.8395 7.014 71.4835 7.014C72.1275 7.014 72.6968 7.15867 73.1915 7.448C73.6861 7.73733 74.0641 8.15267 74.3255 8.694C74.5961 9.226 74.7315 9.84667 74.7315 10.556C74.7315 11.2653 74.5961 11.8907 74.3255 12.432C74.0641 12.964 73.6861 13.3747 73.1915 13.664C72.6968 13.9533 72.1275 14.098 71.4835 14.098ZM71.4835 13.16C72.1555 13.16 72.6688 12.9407 73.0235 12.502C73.3875 12.054 73.5695 11.4053 73.5695 10.556C73.5695 9.72533 73.3875 9.086 73.0235 8.638C72.6595 8.18067 72.1461 7.952 71.4835 7.952C70.8208 7.952 70.3075 8.18067 69.9435 8.638C69.5795 9.086 69.3975 9.72533 69.3975 10.556C69.3975 11.396 69.5748 12.04 69.9295 12.488C70.2935 12.936 70.8115 13.16 71.4835 13.16ZM79.1931 7.014C80.0611 7.014 80.7051 7.238 81.1251 7.686C81.5544 8.12467 81.7691 8.79667 81.7691 9.702V14H80.6631V12.838C80.4858 13.2393 80.2151 13.552 79.8511 13.776C79.4871 13.9907 79.0671 14.098 78.5911 14.098C78.1524 14.098 77.7464 14.0093 77.3731 13.832C77.0091 13.6547 76.7198 13.4073 76.5051 13.09C76.2904 12.7727 76.1831 12.4227 76.1831 12.04C76.1831 11.5267 76.3138 11.13 76.5751 10.85C76.8364 10.5607 77.2658 10.3553 77.8631 10.234C78.4604 10.1033 79.2911 10.038 80.3551 10.038H80.6631V9.576C80.6631 9.00667 80.5464 8.596 80.3131 8.344C80.0798 8.08267 79.7018 7.952 79.1791 7.952C78.3951 7.952 77.6158 8.19467 76.8411 8.68L76.4631 7.854C76.8178 7.602 77.2424 7.40133 77.7371 7.252C78.2411 7.09333 78.7264 7.014 79.1931 7.014ZM78.7451 13.202C79.3051 13.202 79.7624 13.0153 80.1171 12.642C80.4811 12.2593 80.6631 11.7693 80.6631 11.172V10.766H80.4111C79.5898 10.766 78.9644 10.8033 78.5351 10.878C78.1058 10.9433 77.7978 11.06 77.6111 11.228C77.4338 11.3867 77.3451 11.6247 77.3451 11.942C77.3451 12.306 77.4758 12.6093 77.7371 12.852C78.0078 13.0853 78.3438 13.202 78.7451 13.202ZM87.7089 7.994L86.9669 8.064C86.2669 8.12933 85.7583 8.34867 85.4409 8.722C85.1329 9.09533 84.9789 9.55733 84.9789 10.108V14H83.8449V7.182H84.9509V8.372C85.3336 7.57867 86.0849 7.13533 87.2049 7.042L87.6109 7.014L87.7089 7.994ZM94.6918 4.13V14H93.5578V12.754C93.3524 13.1833 93.0491 13.5147 92.6478 13.748C92.2558 13.9813 91.7938 14.098 91.2618 14.098C90.6644 14.098 90.1371 13.9487 89.6798 13.65C89.2224 13.3513 88.8678 12.936 88.6158 12.404C88.3638 11.8627 88.2378 11.2373 88.2378 10.528C88.2378 9.828 88.3638 9.212 88.6158 8.68C88.8678 8.148 89.2224 7.73733 89.6798 7.448C90.1371 7.15867 90.6644 7.014 91.2618 7.014C91.7938 7.014 92.2558 7.13067 92.6478 7.364C93.0491 7.59733 93.3524 7.92867 93.5578 8.358V4.13H94.6918ZM91.4858 13.16C92.1484 13.16 92.6571 12.936 93.0118 12.488C93.3758 12.0307 93.5578 11.3867 93.5578 10.556C93.5578 9.72533 93.3758 9.086 93.0118 8.638C92.6571 8.19 92.1484 7.966 91.4858 7.966C90.8231 7.966 90.3051 8.19 89.9318 8.638C89.5678 9.086 89.3858 9.716 89.3858 10.528C89.3858 11.3587 89.5678 12.0073 89.9318 12.474C90.3051 12.9313 90.8231 13.16 91.4858 13.16Z" fill="white"/>
</svg>
