<svg width="16" height="16" viewBox="0 0 16 16" fill="none" xmlns="http://www.w3.org/2000/svg">
<path d="M10 0C6.6875 0 4 1.11875 4 2.5V4.14375C1.67188 4.4875 0 5.4125 0 6.5V13.5C0 14.8813 2.6875 16 6 16C9.3125 16 12 14.8813 12 13.5V11.8531C14.3281 11.5094 16 10.5875 16 9.5V2.5C16 1.11875 13.3125 0 10 0ZM10.5 13.3844C10.1875 13.75 8.6125 14.5 6 14.5C3.3875 14.5 1.8125 13.75 1.5 13.3844V12.15C2.6 12.6687 4.20625 13 6 13C7.79375 13 9.4 12.6687 10.5 12.15V13.3844ZM10.5 10.3844C10.1875 10.75 8.6125 11.5 6 11.5C3.3875 11.5 1.8125 10.75 1.5 10.3844V8.98125C2.6 9.60625 4.20625 10 6 10C7.79375 10 9.4 9.60312 10.5 8.98125V10.3844ZM6 8.5C3.51562 8.5 1.5 7.82812 1.5 7C1.5 6.17188 3.51562 5.5 6 5.5C8.48438 5.5 10.5 6.17188 10.5 7C10.5 7.82812 8.48438 8.5 6 8.5ZM14.5 9.38437C14.2781 9.64375 13.4094 10.0906 12 10.3344V8.84375C12.9688 8.7 13.8344 8.46562 14.5 8.15V9.38437ZM14.5 6.38438C14.2781 6.64375 13.4094 7.09062 12 7.33437V6.5C12 6.275 11.9219 6.05625 11.7875 5.84688C12.8438 5.68125 13.7875 5.38438 14.5 4.97813V6.38438ZM10 4.5C9.84375 4.5 9.69375 4.49062 9.54062 4.48438C8.72812 4.2375 7.76562 4.07188 6.71562 4.01875C5.96875 3.75 5.5 3.39375 5.5 3C5.5 2.17188 7.51562 1.5 10 1.5C12.4844 1.5 14.5 2.17188 14.5 3C14.5 3.82812 12.4844 4.5 10 4.5Z" fill="#B7BDCD"/>
</svg>
