<svg width="16" height="16" viewBox="0 0 16 16" fill="none" xmlns="http://www.w3.org/2000/svg">
<path d="M8 0C3.58261 0 0 3.58261 0 8C0 9.49565 0.417391 10.9043 1.14783 12.1043C1.28696 12.3478 1.46087 12.5913 1.61739 12.8C1.86087 13.1304 2.12174 13.4261 2.41739 13.7043C2.67826 13.9478 2.93913 14.1913 3.23478 14.4C4.55652 15.4087 6.2087 16 8 16C9.7913 16 11.4435 15.4087 12.7652 14.4174C13.0609 14.2087 13.3217 13.9652 13.5826 13.7217C13.8783 13.4435 14.1391 13.1304 14.3826 12.8174C14.5565 12.5913 14.713 12.3652 14.8522 12.1217C15.5826 10.9217 16 9.51304 16 8.01739C16 3.58261 12.4174 0 8 0ZM8 1.58261C10.1043 1.58261 11.8261 3.30435 11.8261 5.4087C11.8261 7.51304 10.1043 9.23478 8 9.23478C5.89565 9.23478 4.17391 7.51304 4.17391 5.4087C4.17391 3.30435 5.89565 1.58261 8 1.58261ZM14.4696 11.3913C14.3478 11.6174 14.2087 11.8435 14.0696 12.0696C13.6522 12.6957 13.1304 13.2522 12.5391 13.7217C12.2087 13.9826 11.8609 14.2087 11.4957 14.4174C10.4522 14.9739 9.26956 15.3043 8.01739 15.3043C6.76522 15.3043 5.56522 14.9739 4.53913 14.4174C4.17391 14.2087 3.82609 13.9826 3.49565 13.7217C2.90435 13.2522 2.38261 12.6957 1.96522 12.0696C1.82609 11.8609 1.68696 11.6348 1.56522 11.3913C2.31304 10.2783 3.51304 9.47826 4.92174 9.28696C5.0087 9.26957 5.09565 9.30435 5.18261 9.35652C6.01739 9.96522 7.0087 10.2957 8.03478 10.2957C9.06087 10.2957 10.0696 9.98261 10.887 9.35652C10.9565 9.30435 11.0435 9.28696 11.1478 9.28696C12.5217 9.47826 13.7217 10.2783 14.4696 11.3913Z" fill="white"/>
</svg>
