<svg width="16" height="19" viewBox="0 0 16 19" fill="none" xmlns="http://www.w3.org/2000/svg">
<path d="M12.2857 10.2854H3.71429C3.55714 10.2854 3.42857 10.414 3.42857 10.5711V11.714C3.42857 11.8711 3.55714 11.9997 3.71429 11.9997H12.2857C12.4429 11.9997 12.5714 11.8711 12.5714 11.714V10.5711C12.5714 10.414 12.4429 10.2854 12.2857 10.2854ZM14.3143 0.20329L12.7607 1.32115L11.3821 0.32829C10.7821 -0.103853 9.98214 -0.103853 9.37857 0.32829L8 1.32115L6.62143 0.32829C6.32989 0.117597 5.97935 0.00418678 5.61964 0.00418678C5.25994 0.00418678 4.9094 0.117597 4.61786 0.32829L3.23929 1.32115L1.68571 0.20329C0.978572 -0.303853 0 0.199718 0 1.06758V17.2211C0 18.0711 0.967857 18.5997 1.68571 18.0854L3.23929 16.964L4.61786 17.9569C5.21786 18.389 6.01786 18.389 6.62143 17.9569L8 16.964L9.37857 17.9569C9.97857 18.389 10.7821 18.389 11.3821 17.9569L12.7607 16.964L14.3143 18.0819C15.0214 18.589 16 18.0854 16 17.2211V1.06758C16 0.214004 15.0321 -0.310996 14.3143 0.20329ZM14.2857 15.9461L12.7607 14.8497L10.3786 16.564L7.99643 14.8497L5.61429 16.564L3.23214 14.8497L1.71429 15.9461V2.339L3.23929 3.43543L5.62143 1.72115L8.00357 3.43543L10.3857 1.72115L12.7679 3.43543L14.2857 2.339V15.9461ZM12.2857 6.28543H3.71429C3.55714 6.28543 3.42857 6.414 3.42857 6.57115V7.714C3.42857 7.87115 3.55714 7.99972 3.71429 7.99972H12.2857C12.4429 7.99972 12.5714 7.87115 12.5714 7.714V6.57115C12.5714 6.414 12.4429 6.28543 12.2857 6.28543Z" fill="#B7BDCD"/>
</svg>
